<svg id="Capa_1" enable-background="new 0 0 512 512" height="512" viewBox="0 0 512 512" width="512" xmlns="http://www.w3.org/2000/svg"><g><path d="m411 341.75v-58.436l30.94-146.968c22.014-2.918 39.06-21.797 39.06-44.596 0-24.813-20.187-45-45-45s-45 20.187-45 45c0 5.353.944 10.489 2.667 15.255l-63.438 51.905-39.989-70.008c6.701-7.859 10.76-18.038 10.76-29.152 0-24.813-20.187-45-45-45s-45 20.187-45 45c0 11.114 4.059 21.293 10.76 29.152l-39.989 70.007-63.438-51.905c1.723-4.766 2.667-9.902 2.667-15.255 0-24.813-20.187-45-45-45s-45 20.187-45 45c0 22.799 17.046 41.678 39.06 44.596l30.94 146.969v58.436c0 8.284 6.716 15 15 15h280c8.284 0 15-6.716 15-15zm25-265c8.271 0 15 6.729 15 15s-6.729 15-15 15-15-6.729-15-15 6.729-15 15-15zm-180-32c8.271 0 15 6.729 15 15s-6.729 15-15 15-15-6.729-15-15 6.729-15 15-15zm-70 152c.908 0 1.822-.083 2.73-.251 4.34-.803 8.105-3.477 10.295-7.31l48.677-85.219c2.691.504 5.462.78 8.298.78s5.606-.276 8.298-.78l48.677 85.219c2.189 3.833 5.955 6.507 10.295 7.31.908.169 1.821.251 2.73.251 3.435 0 6.798-1.181 9.499-3.391l77.054-63.045-28.724 136.436h-255.658l-28.724-136.436 77.054 63.045c2.702 2.21 6.064 3.391 9.499 3.391zm-125-105c0-8.271 6.729-15 15-15s15 6.729 15 15-6.729 15-15 15-15-6.729-15-15zm320 235h-250v-30h250z"/><path d="m251.781 404.629c-.066-6.862-5.649-12.379-12.496-12.379-.041 0-.083 0-.124.001-6.903.066-12.445 5.717-12.378 12.62l.392 40.594-32.918-47.669c-3.109-4.501-8.782-6.457-14.006-4.83-5.223 1.628-8.78 6.463-8.78 11.934v79.851c0 6.903 5.597 12.5 12.5 12.5s12.5-5.597 12.5-12.5v-39.752l31.208 45.19c3.575 5.166 9.578 7.349 15.288 5.564 5.809-1.814 9.562-7.191 9.562-13.699 0-.04 0-.08-.001-.121z"/><path d="m141 392.25c-6.903 0-12.5 5.597-12.5 12.5v80c0 6.903 5.597 12.5 12.5 12.5s12.5-5.597 12.5-12.5v-80c0-6.903-5.597-12.5-12.5-12.5z"/><path d="m101.614 392.637c-6.771-1.348-13.353 3.049-14.7 9.819l-7.341 36.884-11.789-38.27c-2.033-6.599-9.03-10.296-15.626-8.267-4.406 1.358-7.509 4.933-8.486 9.121l-11.584 37.426-7.323-37.025c-1.34-6.773-7.919-11.178-14.688-9.837-6.772 1.34-11.176 7.916-9.837 14.688l15.587 78.799c.118.598.28 1.186.484 1.76 2.026 5.702 7.435 9.516 13.479 9.516h.096c6.083-.041 11.487-3.938 13.447-9.697.038-.109.073-.221.108-.331l12.39-40.031 12.334 40.038c.053.169.108.338.168.505 2.026 5.702 7.435 9.516 13.479 9.516h.1c6.085-.043 11.488-3.942 13.446-9.703.176-.518.317-1.046.424-1.581l15.649-78.629c1.35-6.773-3.047-13.354-9.817-14.701z"/><path d="m337.008 392.25c-.003 0-.005 0-.008 0-6.899 0-12.496 5.592-12.5 12.492l-.025 41.269-33.295-48.215c-3.108-4.501-8.783-6.457-14.006-4.83-5.223 1.628-8.78 6.463-8.78 11.934v79.851c0 6.903 5.597 12.5 12.5 12.5s12.5-5.597 12.5-12.5v-39.752l31.208 45.19c3.574 5.164 9.573 7.349 15.288 5.564 5.81-1.814 9.563-7.191 9.563-13.691l.047-77.304c.004-6.904-5.589-12.504-12.492-12.508z"/><path d="m413.854 417.25c6.903 0 12.5-5.597 12.5-12.5s-5.597-12.5-12.5-12.5h-33.709c-6.903 0-12.5 5.597-12.5 12.5v80c0 6.903 5.597 12.5 12.5 12.5h33.709c6.903 0 12.5-5.597 12.5-12.5s-5.597-12.5-12.5-12.5h-21.209v-15h18.724c6.903 0 12.5-5.597 12.5-12.5s-5.597-12.5-12.5-12.5h-18.724v-15z"/><path d="m491.007 456.18c12.329-5.077 20.993-16.899 20.993-30.639 0-18.356-15.462-33.291-34.468-33.291h-21.11c-6.903 0-12.5 5.597-12.5 12.5v80c0 6.903 5.597 12.5 12.5 12.5s12.5-5.597 12.5-12.5v-15.822l21.194 24.081c2.472 2.808 5.921 4.241 9.389 4.241 2.933 0 5.879-1.026 8.254-3.116 5.182-4.562 5.686-12.46 1.125-17.643zm-4.007-30.639c0 4.417-4.424 8.291-9.468 8.291-2.075 0-5.299.012-8.61.026v-16.608h8.61c5.044 0 9.468 3.874 9.468 8.291z"/></g></svg>