<svg id="Capa_1" enable-background="new 0 0 511.99 511.99" height="512" viewBox="0 0 511.99 511.99" width="512" xmlns="http://www.w3.org/2000/svg"><g><g><path d="m297.955 239.24c0-27.57-22.43-50-50-50s-50 22.43-50 50 22.43 50 50 50 50-22.429 50-50zm-80 0c0-16.542 13.458-30 30-30s30 13.458 30 30-13.458 30-30 30-30-13.458-30-30z"/><path d="m161.772 289.24c5.523 0 10-4.477 10-10v-70h6.064c5.523 0 10-4.477 10-10s-4.477-10-10-10h-32c-5.523 0-10 4.477-10 10s4.477 10 10 10h5.936v70c0 5.523 4.477 10 10 10z"/><path d="m328.86 289.24c5.523 0 10-4.477 10-10v-24.821c2.571-.015 5.203-.027 7.275-.027 18.207 0 33.019-14.614 33.019-32.576s-14.812-32.576-33.019-32.576h-17.275c-2.658 0-5.206 1.058-7.083 2.94-1.876 1.882-2.926 4.434-2.917 7.091v79.968c0 5.524 4.477 10.001 10 10.001zm17.275-80c7.057 0 13.019 5.759 13.019 12.576s-5.962 12.576-13.019 12.576c-2.053 0-4.637.011-7.175.026-.023-4.622-.057-20.346-.07-25.178z"/><path d="m509.73 194.661c-5.389-16.584-19.456-28.443-36.712-30.951l-82.448-11.98c-5.467-.798-10.54 2.992-11.334 8.458-.794 5.465 2.993 10.54 8.458 11.334l82.448 11.98c9.814 1.426 17.502 7.908 20.566 17.339 3.065 9.432.655 19.195-6.446 26.117l-91.886 89.566c-2.357 2.297-3.433 5.608-2.876 8.852l21.691 126.47c1.676 9.774-2.113 19.089-10.136 24.918-8.022 5.829-18.052 6.554-26.831 1.939l-113.577-59.711c-2.913-1.532-6.394-1.532-9.307 0l-113.578 59.711c-8.777 4.616-18.807 3.89-26.83-1.939s-11.812-15.144-10.136-24.918l21.691-126.47c.557-3.244-.519-6.554-2.876-8.852l-91.886-89.566c-7.101-6.922-9.511-16.686-6.446-26.117 3.064-9.432 10.752-15.914 20.566-17.339l126.983-18.452c3.257-.473 6.073-2.519 7.529-5.47l56.789-115.067c4.389-8.893 12.929-14.202 22.846-14.202s18.458 5.31 22.846 14.202l36.87 74.706c2.445 4.953 8.44 6.985 13.393 4.542 4.952-2.444 6.986-8.44 4.542-13.393l-36.87-74.706c-7.717-15.637-23.343-25.351-40.781-25.351s-33.064 9.714-40.781 25.351l-54.462 110.353-121.778 17.695c-17.256 2.507-31.323 14.367-36.711 30.951s-.979 34.448 11.508 46.619l88.122 85.897-20.804 121.288c-2.948 17.187 3.984 34.23 18.092 44.479 14.107 10.249 32.459 11.575 47.893 3.461l108.924-57.265 108.924 57.265c6.713 3.529 13.978 5.272 21.205 5.272 9.39 0 18.717-2.943 26.688-8.734 14.107-10.25 21.04-27.293 18.092-44.479l-20.803-121.289 88.122-85.897c12.487-12.17 16.896-30.033 11.507-46.617z"/><path d="m218.481 408.104c5.523 0 10-4.477 10-10v-78.432c0-5.523-4.477-10-10-10h-16.429c-5.523 0-10 4.477-10 10s4.477 10 10 10h6.429v68.432c0 5.523 4.477 10 10 10z"/><path d="m287.711 409.672c17.77 0 32.227-14.457 32.227-32.227v-35.546c0-17.77-14.457-32.227-32.227-32.227s-32.227 14.457-32.227 32.227v35.546c0 17.77 14.457 32.227 32.227 32.227zm-12.227-67.773c0-6.742 5.485-12.227 12.227-12.227s12.227 5.485 12.227 12.227v35.546c0 6.742-5.485 12.227-12.227 12.227s-12.227-5.485-12.227-12.227z"/><circle cx="344.595" cy="155.152" r="10"/></g></g></svg>