<svg id="Capa_1" fill="#AB622B" enable-background="new 0 0 511.999 511.999" height="512" viewBox="0 0 511.999 511.999" width="512" xmlns="http://www.w3.org/2000/svg"><g id="XMLID_1134_"><g id="XMLID_1013_"><path id="XMLID_182_" d="m396 291.999h-92.261c-2.761 0-5.261 1.119-7.07 2.929h-.001l-40.668 40.668-40.668-40.668h-.001c-1.81-1.81-4.309-2.929-7.07-2.929h-92.261c-49.626 0-90 40.374-90 90v120c0 5.522 4.478 10 10 10h440c5.522 0 10-4.478 10-10v-120c0-49.626-40.374-90-90-90zm-39.78 92.947 26.243 26.241-29.462 80.812h-27.001v-180h22.857l33.084 33.084-25.721 25.721c-1.875 1.876-2.929 4.419-2.929 7.071s1.054 5.196 2.929 7.071zm-50.22-71.065v71.557l-35.845-35.712zm-31.696 68.21-18.304 18.305-18.305-18.305 18.305-18.237zm-68.304-68.21 35.845 35.845-35.845 35.712zm-160 68.118c0-38.599 31.401-70 70-70h18.857l-26.013 26.013c-3.905 3.905-3.905 10.237 0 14.143l25.721 25.721-23.679 23.678c-2.749 2.749-3.655 6.844-2.324 10.496l29.148 79.95h-91.71zm140 110h-27.002l-29.462-80.812 26.243-26.241c1.875-1.875 2.929-4.419 2.929-7.071s-1.054-5.195-2.929-7.071l-25.721-25.721 33.084-33.084h22.858zm20-78.33 17.527-17.462 25.402 25.402c1.953 1.952 4.512 2.929 7.071 2.929s5.118-.977 7.071-2.929l25.402-25.402 17.527 17.462v78.33h-100zm260 78.33h-91.71l29.148-79.95c1.331-3.652.425-7.747-2.324-10.496l-23.679-23.678 25.721-25.721c3.905-3.905 3.905-10.237 0-14.143l-26.013-26.013h18.857c38.599 0 70 31.401 70 70z"/></g><g id="XMLID_1031_"><g id="XMLID_1030_"><path id="XMLID_3565_" d="m256 288.126c-8.422 0-16.671-3.419-22.632-9.379-5.953-5.954-9.368-14.199-9.368-22.621 0-8.413 3.411-16.659 9.359-22.622 5.981-5.967 14.228-9.378 22.641-9.378 8.414 0 16.659 3.411 22.622 9.36 5.966 5.981 9.378 14.227 9.378 22.64 0 8.422-3.415 16.666-9.369 22.621-5.96 5.96-14.209 9.379-22.631 9.379zm0-44c-3.158 0-6.256 1.283-8.499 3.52-2.218 2.225-3.501 5.322-3.501 8.48 0 3.157 1.279 6.248 3.511 8.479 2.237 2.238 5.332 3.521 8.489 3.521s6.251-1.283 8.487-3.521c2.232-2.232 3.513-5.322 3.513-8.479 0-3.158-1.283-6.256-3.521-8.499-2.225-2.219-5.321-3.501-8.479-3.501z"/></g></g><g id="XMLID_1032_"><g id="XMLID_1028_"><path id="XMLID_3564_" d="m278 200.126h-44c-5.522 0-10-4.478-10-10v-25.36c0-25.684 15.975-48.896 39.751-57.761 8.994-3.354 14.791-12.077 14.425-21.708-.437-11.496-9.783-20.843-21.279-21.279-6.107-.246-11.896 1.958-16.284 6.184-2.063 1.984-3.692 4.278-4.846 6.817-5.313 11.691-16.986 19.065-29.829 18.802-10.793-.227-20.676-5.816-26.436-14.955-5.745-9.113-6.526-20.406-2.09-30.207 4.499-9.94 10.828-18.877 18.813-26.563 17.025-16.392 39.437-24.918 63.1-24.033 26.064.991 50.045 13.668 65.794 34.78 3.302 4.427 2.391 10.692-2.036 13.995-4.429 3.303-10.692 2.39-13.995-2.036-12.116-16.242-30.53-25.993-50.521-26.753-18.164-.696-35.396 5.866-48.471 18.455-6.148 5.919-11.015 12.782-14.463 20.4-1.682 3.717-1.395 7.833.788 11.296 2.198 3.488 5.82 5.538 9.937 5.624 4.854.082 9.2-2.678 11.2-7.079 2.204-4.851 5.294-9.208 9.185-12.953 8.344-8.032 19.316-12.218 30.922-11.76 21.874.83 39.667 18.623 40.498 40.505.694 18.272-10.327 34.833-27.425 41.208-15.993 5.963-26.738 21.644-26.738 39.021v15.36h24v-15.36c0-7.408 4.47-14.053 11.123-16.533 13.771-5.134 25.164-14.404 32.95-26.81 2.936-4.678 9.108-6.092 13.785-3.154 4.679 2.936 6.091 9.107 3.154 13.785-9.783 15.589-23.936 27.377-41.013 34.189v23.883c.001 5.522-4.477 10-9.999 10z"/></g></g><g id="XMLID_1174_"><path id="XMLID_3563_" d="m332.139 93.249c-2.63 0-5.21-1.07-7.07-2.931-1.859-1.859-2.93-4.439-2.93-7.069 0-2.641 1.07-5.21 2.93-7.07s4.431-2.93 7.07-2.93c2.63 0 5.21 1.069 7.07 2.93 1.859 1.86 2.93 4.44 2.93 7.07s-1.07 5.21-2.93 7.069c-1.86 1.861-4.44 2.931-7.07 2.931z"/></g></g></svg>